<?xml version="1.0" encoding="UTF-8" standalone="no"?>
<!-- Generator: Adobe Illustrator 15.0.0, SVG Export Plug-In . SVG Version: 6.00 Build 0)  -->
<svg
   xmlns:dc="http://purl.org/dc/elements/1.1/"
   xmlns:cc="http://web.resource.org/cc/"
   xmlns:rdf="http://www.w3.org/1999/02/22-rdf-syntax-ns#"
   xmlns:svg="http://www.w3.org/2000/svg"
   xmlns="http://www.w3.org/2000/svg"
   xmlns:sodipodi="http://sodipodi.sourceforge.net/DTD/sodipodi-0.dtd"
   xmlns:inkscape="http://www.inkscape.org/namespaces/inkscape"
   version="1.0"
   id="Layer_1"
   x="0px"
   y="0px"
   width="180.95219"
   height="30"
   viewBox="0 0 612 792"
   enable-background="new 0 0 612 792"
   xml:space="preserve"
   sodipodi:version="0.32"
   inkscape:version="0.45pre1"
   sodipodi:docname="logo.svg"
   inkscape:output_extension="org.inkscape.output.svg.inkscape"
   sodipodi:docbase="C:\Users\Chatto\Dropbox\VGdesk\web\assets\images"
   sodipodi:modified="true"><sodipodi:namedview
   inkscape:window-height="1018"
   inkscape:window-width="1916"
   inkscape:pageshadow="2"
   inkscape:pageopacity="0.0"
   guidetolerance="10.0"
   gridtolerance="10.0"
   objecttolerance="10.0"
   borderopacity="1.0"
   bordercolor="#666666"
   pagecolor="#ffffff"
   id="base"
   showguides="true"
   inkscape:guide-bbox="true"
   showgrid="true"
   inkscape:zoom="6.9409644"
   inkscape:cx="124.6969"
   inkscape:cy="33.375428"
   inkscape:window-x="0"
   inkscape:window-y="24"
   inkscape:current-layer="g2370"
   width="181px"
   height="30px" /><metadata
   id="metadata2368"><rdf:RDF><cc:Work
       rdf:about=""><dc:format>image/svg+xml</dc:format><dc:type
         rdf:resource="http://purl.org/dc/dcmitype/StillImage" /></cc:Work></rdf:RDF></metadata><defs
   id="defs2366" />









<g
   transform="matrix(4.3355924,0,0,4.3355924,-960.94277,-1573.4865)"
   id="g2370"><path
     id="path2353"
     d="M 102.619,518.933 C 102.619,522.204 103.236,525.273 104.473,528.144 C 105.708,531.015 107.383,533.509 109.497,535.621 C 111.609,537.735 114.102,539.41 116.974,540.646 C 119.845,541.883 122.875,542.5 126.066,542.5 L 168.295,542.5 C 171.325,542.5 174.196,541.943 176.908,540.825 C 179.618,539.709 182.032,538.175 184.145,536.22 C 186.257,534.266 187.992,531.973 189.349,529.341 C 190.704,526.709 191.502,523.919 191.742,520.967 L 191.742,542.5 L 215.309,542.5 L 215.309,366.047 L 191.742,366.047 L 191.742,415.095 L 126.066,415.095 C 122.875,415.095 119.845,415.714 116.974,416.949 C 114.103,418.186 111.609,419.861 109.497,421.973 C 107.383,424.087 105.708,426.578 104.473,429.45 C 103.235,432.321 102.619,435.392 102.619,438.661 L 102.619,518.933 L 102.619,518.933 z M 126.066,438.662 L 191.742,438.662 L 191.742,518.933 L 126.066,518.933 L 126.066,438.662 L 126.066,438.662 z "
     style="fill:#000000;stroke:#ffffff;stroke-opacity:1;stroke-width:6.08913329;stroke-miterlimit:4;stroke-dasharray:none;stroke-linejoin:round;fill-opacity:1" /><path
     id="path2355"
     d="M 347.633,438.662 C 347.633,435.393 347.014,432.322 345.779,429.451 C 344.542,426.58 342.867,424.088 340.755,421.974 C 338.641,419.862 336.149,418.187 333.278,416.95 C 330.407,415.714 327.336,415.096 324.067,415.096 L 263.296,415.096 C 260.106,415.096 257.075,415.715 254.204,416.95 C 251.333,418.187 248.84,419.862 246.727,421.974 C 244.613,424.088 242.938,426.579 241.703,429.451 C 240.466,432.322 239.849,435.393 239.849,438.662 L 239.849,518.933 C 239.849,522.204 240.466,525.273 241.703,528.144 C 242.938,531.015 244.613,533.509 246.727,535.621 C 248.839,537.735 251.332,539.41 254.204,540.646 C 257.075,541.883 260.105,542.5 263.296,542.5 L 347.634,542.5 L 347.634,518.933 L 263.296,518.933 L 263.296,490.82 L 347.634,490.82 L 347.634,438.662 L 347.633,438.662 z M 324.066,438.662 L 324.066,467.253 L 263.295,467.253 L 263.295,438.662 L 324.066,438.662 z "
     style="fill:#000000;stroke:#ffffff;stroke-opacity:1;stroke-width:6.08913329;stroke-miterlimit:4;stroke-dasharray:none;stroke-linejoin:round;fill-opacity:1" /><path
     id="path2357"
     d="M 369.66,518.933 L 369.66,542.5 L 449.094,542.5 C 452.363,542.5 455.414,541.883 458.245,540.646 C 461.075,539.41 463.569,537.735 465.722,535.621 C 467.875,533.509 469.569,531.016 470.806,528.144 C 472.042,525.273 472.66,522.204 472.66,518.933 L 472.66,489.385 C 472.66,486.116 472.041,483.045 470.806,480.174 C 469.569,477.303 467.875,474.811 465.722,472.697 C 463.569,470.585 461.075,468.91 458.245,467.673 C 455.413,466.438 452.363,465.819 449.094,465.819 L 393.227,465.819 L 393.227,438.663 L 467.756,438.663 L 467.756,415.096 L 393.227,415.096 C 389.956,415.096 386.887,415.715 384.016,416.95 C 381.145,418.187 378.651,419.862 376.539,421.974 C 374.425,424.088 372.75,426.579 371.515,429.451 C 370.278,432.322 369.661,435.393 369.661,438.662 L 369.661,465.818 C 369.661,469.089 370.278,472.158 371.515,475.029 C 372.751,477.9 374.426,480.394 376.539,482.506 C 378.651,484.62 381.145,486.295 384.016,487.53 C 386.887,488.768 389.956,489.384 393.227,489.384 L 449.094,489.384 L 449.094,518.932 L 369.66,518.932 L 369.66,518.933 z "
     style="fill:#000000;stroke:#ffffff;stroke-opacity:1;stroke-width:6.08913329;stroke-miterlimit:4;stroke-dasharray:none;stroke-linejoin:round;fill-opacity:1" /><path
     id="path2359"
     d="M 612.042,542.5 L 538.709,476.584 L 607.137,415.095 L 574,415.095 L 518.133,465.339 L 518.133,366.047 L 494.686,366.047 L 494.686,542.5 L 518.133,542.5 L 518.133,488.069 L 578.904,542.5 L 612.042,542.5 z "
     style="fill:#000000;stroke:#ffffff;stroke-opacity:1;stroke-width:6.08913329;stroke-miterlimit:4;stroke-dasharray:none;stroke-linejoin:round;fill-opacity:1" /><path
     id="path2361"
     d="M -165.512,542.5 L -99.357,370.952 L -125.556,370.952 L -179.03,512.114 L -232.384,370.952 L -258.702,370.952 L -192.547,542.5 L -165.512,542.5 z "
     style="fill:#ffffff;stroke:#000000;stroke-opacity:1;stroke-width:6.08913329;stroke-miterlimit:4;stroke-dasharray:none;stroke-linejoin:round;stroke-linecap:round" /><path
     id="path2363"
     d="M -84.748,517.976 C -84.748,521.326 -84.111,524.496 -82.834,527.487 C -81.559,530.478 -79.804,533.091 -77.57,535.322 C -75.338,537.556 -72.725,539.311 -69.734,540.586 C -66.743,541.863 -63.573,542.5 -60.224,542.5 L 32.847,542.5 C 36.197,542.5 39.367,541.863 42.357,540.586 C 45.348,539.311 47.959,537.556 50.192,535.322 C 52.424,533.09 54.179,530.477 55.456,527.487 C 56.731,524.496 57.37,521.326 57.37,517.976 L 57.37,451.821 L -13.69,451.821 L -13.69,476.345 L 32.846,476.345 L 32.846,517.976 L -60.225,517.976 L -60.225,395.476 L 32.846,395.476 L 32.846,417.607 L 57.37,417.607 L 57.37,395.476 C 57.37,392.126 56.731,388.956 55.456,385.966 C 54.179,382.975 52.424,380.384 50.192,378.19 C 47.958,375.998 45.347,374.242 42.357,372.926 C 39.366,371.611 36.196,370.952 32.847,370.952 L -60.224,370.952 C -63.574,370.952 -66.744,371.61 -69.734,372.926 C -72.725,374.242 -75.338,375.997 -77.57,378.19 C -79.804,380.385 -81.559,382.976 -82.834,385.966 C -84.111,388.956 -84.748,392.127 -84.748,395.476 L -84.748,517.976 z "
     style="fill:#ffffff;stroke:#000000;stroke-opacity:1;stroke-width:6.08913329;stroke-miterlimit:4;stroke-dasharray:none;stroke-linejoin:round;stroke-linecap:round" /></g>
</svg>